<svg width="143" height="42" viewBox="0 0 143 42" fill="none" xmlns="http://www.w3.org/2000/svg">
<path d="M68.429 31.517H64.1094C64.0901 31.517 64.0785 31.5133 64.0669 31.5005L60.345 27.1841L56.6193 31.5005C56.6115 31.5133 56.598 31.517 56.5787 31.517H53.1199C53.0986 31.517 53.0831 31.5078 53.0676 31.4858C53.0618 31.4729 53.0618 31.449 53.0754 31.4343L58.5576 25.0406L53.1392 18.7074C53.1237 18.6853 53.1237 18.667 53.1296 18.6468C53.1392 18.6357 53.1605 18.6174 53.1779 18.6174H57.4995C57.513 18.6174 57.5285 18.6247 57.5401 18.6431L60.8054 22.4856L64.1288 18.6413C64.1384 18.6247 64.1539 18.6174 64.1694 18.6174H67.692C67.7133 18.6174 67.7346 18.6357 67.7423 18.6468C67.752 18.667 67.7481 18.689 67.7346 18.7074L62.5909 24.5722L68.4658 31.4343C68.4813 31.449 68.4871 31.4729 68.4755 31.4858C68.4658 31.5078 68.4464 31.517 68.429 31.517Z" fill="white"/>
<path d="M91.8084 20.8917C89.8952 20.8917 88.5895 21.9937 88.2162 23.9095H94.7236V23.7864C94.7236 22.2527 93.5339 20.8917 91.8084 20.8917ZM98.0799 25.8748C98.0702 25.8895 98.0509 25.8987 98.0334 25.8987H88.1465C88.3516 28.0844 89.8469 29.3298 92.2669 29.3298C93.7564 29.3298 95.3388 28.8467 97.575 27.7171C97.6156 27.695 97.6562 27.7281 97.6562 27.7685L97.6524 30.6559C97.6485 30.6798 97.6369 30.6945 97.6195 30.7C95.54 31.532 93.4508 32.0996 91.8084 32.0996C87.5507 32.0996 84.4653 29.1534 84.4653 25.096C84.4653 21.0386 87.5507 18.0924 91.8084 18.0924C95.6928 18.0924 98.1882 20.5776 98.1882 23.9958C98.1882 24.5487 98.0876 25.8344 98.0799 25.8748Z" fill="white"/>
<path d="M118.164 15.9545C116.951 15.9545 115.965 15.0324 115.965 13.8973C115.965 12.7291 116.951 11.7832 118.164 11.7832C119.377 11.7832 120.366 12.7291 120.366 13.8973C120.366 15.0324 119.377 15.9545 118.164 15.9545ZM116.389 31.5174C116.354 31.5174 116.332 31.4972 116.332 31.4641V18.671C116.332 18.6453 116.352 18.6251 116.375 18.6196H119.946C119.975 18.6251 119.991 18.6453 119.991 18.671V31.4641C119.991 31.4972 119.967 31.5174 119.938 31.5174H116.389Z" fill="white"/>
<path d="M74.9601 29.5906C74.3159 29.5906 73.6563 29.5043 72.898 29.3114L72.9057 21.1047C73.7936 20.8366 74.5654 20.7098 75.3296 20.7098C77.8056 20.7098 79.4673 22.4437 79.4673 25.0189C79.4673 27.7961 77.6973 29.5906 74.9601 29.5906ZM75.9312 18.0943C74.9233 18.0943 73.9058 18.2688 72.838 18.6177H69.2844C69.2554 18.6177 69.2341 18.6416 69.2341 18.671V39.6506C70.3077 39.511 71.6232 39.1473 72.8999 38.284L72.898 31.9031C73.7743 32.0206 74.4977 32.0996 75.1961 32.0996C80.0631 32.0996 83.2124 29.3298 83.2124 25.0409C83.2124 20.9523 80.2159 18.0943 75.9312 18.0943Z" fill="white"/>
<path d="M109.886 28.5282C108.774 29.0829 107.78 29.3456 106.845 29.3456C104.642 29.3456 103.321 27.867 103.321 25.391C103.321 22.5257 105.008 20.6724 107.615 20.6724C108.335 20.6724 109.035 20.8395 109.886 21.205V28.5282ZM109.886 11.8449V18.5417C108.844 18.2588 107.925 18.1284 106.998 18.1284C102.764 18.1284 99.5659 21.1591 99.5659 25.1853C99.5659 29.1931 102.386 32.0989 106.267 32.0989C107.611 32.0989 108.869 31.7793 110.349 31.0556L110.347 32.2109C111.323 32.0346 112.445 31.6636 113.552 30.9197V10.4746C112.465 10.6124 111.176 10.9577 109.886 11.8449Z" fill="white"/>
<path d="M132.363 28.5029C131.287 29.0925 130.364 29.3754 129.54 29.3754C127.18 29.3754 125.766 27.9023 125.766 25.4172C125.766 22.594 127.432 20.7003 129.908 20.7003C130.571 20.7003 131.376 20.941 132.363 21.4369V28.5029ZM136.032 18.4632C136.032 18.3842 135.961 18.3217 135.879 18.3217L132.993 18.3254C132.908 18.3254 132.837 18.3952 132.837 18.4723V18.9389H132.763C131.43 18.3842 130.295 18.1289 129.175 18.1289C125.182 18.1289 122.052 21.2716 122.052 25.2996C122.052 29.3717 124.853 32.1012 129.022 32.1012C130.138 32.1012 131.568 32.0277 132.906 30.5656V32.2114C133.852 32.0203 134.968 31.6383 136.028 30.9146L136.032 18.4632Z" fill="white"/>
<path d="M43.2398 28.3159L52.204 28.3122C52.0686 29.2636 51.7301 30.3767 50.9525 31.5118H43.2611H41.7291H41.6265C40.4852 31.5118 39.547 30.6724 39.4348 29.6108C39.429 29.5943 39.4232 29.5796 39.4213 29.5649V20.8476V12.7786C39.4232 12.7658 39.429 12.7474 39.4348 12.7364C39.547 11.6729 40.4852 10.8298 41.6265 10.8298C41.6633 10.8298 41.6981 10.8335 41.7291 10.8335L52.1847 10.8317C52.0474 11.7813 51.7088 12.9237 50.9331 14.0552H43.2398V18.6251H50.8557C50.8867 18.6251 50.9099 18.6453 50.9099 18.6747V21.8449C50.9099 21.8706 50.8867 21.8945 50.8557 21.8945H43.2398V28.3122V28.3159Z" fill="white"/>
<path d="M32.0186 31.7784C31.1326 31.7784 30.5852 31.1208 30.5852 30.3163C30.5852 29.4549 31.2119 28.8542 32.0186 28.8542C32.8175 28.8542 33.4423 29.4549 33.4423 30.3163C33.4423 31.1796 32.8175 31.7784 32.0186 31.7784ZM32.0186 28.6889C31.1113 28.6889 30.3356 29.3373 30.3356 30.3163C30.3356 31.242 31.0359 31.9382 32.0186 31.9382C32.9142 31.9382 33.6938 31.2935 33.6938 30.3163C33.6938 29.3373 32.9142 28.6889 32.0186 28.6889Z" fill="white"/>
<path d="M31.6164 30.1826V29.5893H32.0381C32.2509 29.5893 32.5024 29.6206 32.5024 29.8667C32.5024 30.1587 32.2702 30.1826 32.0052 30.1826H31.6164ZM32.8138 29.9053C32.8138 29.5177 32.5623 29.3524 32.0749 29.3524H31.3069V31.2755H31.6415V30.4526H31.9511L32.4753 31.2755H32.8525L32.2838 30.4306C32.5914 30.3957 32.8138 30.2542 32.8138 29.9053Z" fill="white"/>
<path d="M138.98 20.7473C138.094 20.7473 137.542 20.0897 137.542 19.2852C137.542 18.4238 138.171 17.8232 138.98 17.8232C139.777 17.8232 140.403 18.4238 140.403 19.2852C140.403 20.1485 139.777 20.7473 138.98 20.7473ZM138.98 17.6579C138.072 17.6579 137.297 18.3062 137.297 19.2852C137.297 20.211 137.995 20.9071 138.98 20.9071C139.873 20.9071 140.651 20.2606 140.651 19.2852C140.651 18.3062 139.873 17.6579 138.98 17.6579Z" fill="white"/>
<path d="M138.576 19.1506V18.5592H138.997C139.21 18.5592 139.462 18.5885 139.462 18.8347C139.462 19.1286 139.228 19.1506 138.967 19.1506H138.576ZM139.773 18.8732C139.773 18.4857 139.522 18.3204 139.034 18.3204H138.266V20.2435H138.597V19.4224H138.91L139.435 20.2435H139.81L139.243 19.3986C139.549 19.3655 139.773 19.2222 139.773 18.8732Z" fill="white"/>
<path d="M20.4555 14.0396L19.8055 12.2928L14.2924 5.2966L15.2828 5.06333L24.7887 12.8659L30.3831 11.3469C31.0408 11.1853 31.7875 11.1504 32.3562 11.154C30.5978 7.55398 27.3808 4.59862 23.1328 3.16227C14.7354 0.320791 5.5023 4.48658 2.51553 12.4637C1.59086 14.9304 1.37034 17.4762 1.75916 19.8971L15.161 15.476L20.4555 14.0396Z" fill="white"/>
<path d="M32.9449 12.5329C32.4536 12.8359 31.732 13.2327 31.0163 13.4512L25.4103 14.9702L21.6691 26.3729L20.698 26.6723L21.4873 17.9642L21.0462 16.155L15.7923 17.5785L1.90686 20.6826C3.00562 25.7576 6.78939 30.1769 12.3045 32.043C20.7038 34.8845 29.933 30.7169 32.9198 22.7453C34.2081 19.3087 34.125 15.7233 32.9449 12.5329Z" fill="white"/>
<path d="M21.0459 16.1562L21.4889 17.9635L20.6977 26.6717L21.6688 26.3723L25.41 14.9714L31.016 13.4524C31.7317 13.2339 32.4533 12.8334 32.9446 12.5341C32.7725 12.0657 32.5751 11.6047 32.3565 11.1546C31.7878 11.151 31.0411 11.1877 30.3834 11.3457L24.789 12.8683L15.2813 5.06208L14.2928 5.29719L19.804 12.2934L20.4559 14.0384L15.1594 15.4784L1.75952 19.8958C1.80208 20.1603 1.85044 20.423 1.90654 20.6838L15.7939 17.5797L21.0459 16.1562Z" fill="#222831"/>
</svg>
