<svg width="139" height="40" viewBox="0 0 139 40" fill="none" xmlns="http://www.w3.org/2000/svg">
<path d="M66.7695 30.9968H62.4942C62.475 30.9968 62.4635 30.993 62.4521 30.9796L58.7683 26.4834L55.0807 30.9796C55.0731 30.993 55.0597 30.9968 55.0405 30.9968H51.6172C51.5961 30.9968 51.5808 30.9873 51.5655 30.9643C51.5597 30.9509 51.5597 30.926 51.5731 30.9107L56.9992 24.2505L51.6363 17.6535C51.621 17.6305 51.621 17.6114 51.6267 17.5903C51.6363 17.5788 51.6574 17.5597 51.6746 17.5597H55.9519C55.9653 17.5597 55.9806 17.5674 55.9921 17.5865L59.224 21.5891L62.5133 17.5846C62.5229 17.5674 62.5382 17.5597 62.5535 17.5597H66.0401C66.0611 17.5597 66.0822 17.5788 66.0899 17.5903C66.0994 17.6114 66.0956 17.6343 66.0822 17.6535L60.9912 23.7626L66.8059 30.9107C66.8212 30.926 66.827 30.9509 66.8155 30.9643C66.8059 30.9873 66.7868 30.9968 66.7695 30.9968Z" fill="white"/>
<path d="M89.9095 19.9288C88.016 19.9288 86.7236 21.0768 86.3541 23.0724H92.7949V22.9442C92.7949 21.3466 91.6174 19.9288 89.9095 19.9288ZM96.1168 25.1196C96.1072 25.1349 96.0881 25.1445 96.0708 25.1445H86.2851C86.4881 27.4213 87.9681 28.7185 90.3633 28.7185C91.8376 28.7185 93.4037 28.2153 95.6171 27.0386C95.6573 27.0157 95.6975 27.0501 95.6975 27.0922L95.6936 30.0999C95.6898 30.1248 95.6783 30.1401 95.6611 30.1458C93.6029 31.0125 91.5351 31.6038 89.9095 31.6038C85.6954 31.6038 82.6416 28.5348 82.6416 24.3083C82.6416 20.0819 85.6954 17.0129 89.9095 17.0129C93.7541 17.0129 96.224 19.6016 96.224 23.1623C96.224 23.7382 96.1244 25.0775 96.1168 25.1196Z" fill="white"/>
<path d="M115.996 14.7859C114.795 14.7859 113.819 13.8254 113.819 12.643C113.819 11.4262 114.795 10.4408 115.996 10.4408C117.196 10.4408 118.174 11.4262 118.174 12.643C118.174 13.8254 117.196 14.7859 115.996 14.7859ZM114.238 30.9973C114.203 30.9973 114.182 30.9763 114.182 30.9418V17.6157C114.182 17.5889 114.202 17.5679 114.225 17.5621H117.759C117.788 17.5679 117.803 17.5889 117.803 17.6157V30.9418C117.803 30.9763 117.78 30.9973 117.751 30.9973H114.238Z" fill="white"/>
<path d="M73.2337 28.9902C72.5961 28.9902 71.9432 28.9003 71.1927 28.6994L71.2003 20.1508C72.0791 19.8714 72.8431 19.7394 73.5993 19.7394C76.0501 19.7394 77.6947 21.5456 77.6947 24.228C77.6947 27.1209 75.9429 28.9902 73.2337 28.9902ZM74.1948 17.0149C73.1973 17.0149 72.1902 17.1966 71.1333 17.5602H67.6161C67.5874 17.5602 67.5663 17.585 67.5663 17.6156V39.4694C68.629 39.3239 69.9309 38.9451 71.1946 38.0459L71.1927 31.3991C72.06 31.5215 72.7761 31.6038 73.4672 31.6038C78.2844 31.6038 81.4015 28.7185 81.4015 24.251C81.4015 19.992 78.4357 17.0149 74.1948 17.0149Z" fill="white"/>
<path d="M107.802 27.8836C106.701 28.4614 105.717 28.735 104.792 28.735C102.612 28.735 101.304 27.1948 101.304 24.6156C101.304 21.6309 102.973 19.7004 105.554 19.7004C106.267 19.7004 106.96 19.8745 107.802 20.2552V27.8836ZM107.802 10.5051V17.4809C106.77 17.1863 105.861 17.0505 104.944 17.0505C100.752 17.0505 97.5876 20.2074 97.5876 24.4014C97.5876 28.5762 100.379 31.603 104.22 31.603C105.551 31.603 106.795 31.2701 108.26 30.5163L108.258 31.7197C109.225 31.536 110.335 31.1496 111.43 30.3747V9.07773C110.354 9.22123 109.079 9.58093 107.802 10.5051Z" fill="white"/>
<path d="M130.048 27.8573C128.984 28.4714 128.071 28.7661 127.255 28.7661C124.919 28.7661 123.52 27.2316 123.52 24.6429C123.52 21.7022 125.168 19.7296 127.619 19.7296C128.275 19.7296 129.072 19.9802 130.048 20.4968V27.8573ZM133.68 17.3992C133.68 17.3169 133.61 17.2518 133.529 17.2518L130.673 17.2557C130.588 17.2557 130.518 17.3284 130.518 17.4087V17.8947H130.445C129.126 17.3169 128.002 17.0509 126.893 17.0509C122.941 17.0509 119.843 20.3246 119.843 24.5205C119.843 28.7623 122.616 31.6054 126.742 31.6054C127.847 31.6054 129.262 31.5289 130.586 30.0059V31.7202C131.523 31.5212 132.627 31.1233 133.677 30.3694L133.68 17.3992Z" fill="white"/>
<path d="M41.8383 27.6623L50.7107 27.6585C50.5767 28.6496 50.2416 29.809 49.4719 30.9915H41.8594H40.343H40.2415C39.1119 30.9915 38.1833 30.1171 38.0722 29.0112C38.0665 28.994 38.0608 28.9787 38.0588 28.9634V19.8828V11.4777C38.0608 11.4643 38.0665 11.4452 38.0722 11.4337C38.1833 10.3259 39.1119 9.44769 40.2415 9.44769C40.2779 9.44769 40.3124 9.45152 40.343 9.45152L50.6916 9.44961C50.5556 10.4388 50.2206 11.6289 49.4528 12.8074H41.8383V17.5677H49.3762C49.4068 17.5677 49.4298 17.5888 49.4298 17.6194V20.9218C49.4298 20.9485 49.4068 20.9734 49.3762 20.9734H41.8383V27.6585V27.6623Z" fill="white"/>
<path d="M30.7319 31.2691C29.855 31.2691 29.3132 30.5841 29.3132 29.7461C29.3132 28.8488 29.9335 28.2231 30.7319 28.2231C31.5227 28.2231 32.1411 28.8488 32.1411 29.7461C32.1411 30.6454 31.5227 31.2691 30.7319 31.2691ZM30.7319 28.0509C29.834 28.0509 29.0662 28.7263 29.0662 29.7461C29.0662 30.7104 29.7593 31.4355 30.7319 31.4355C31.6184 31.4355 32.39 30.764 32.39 29.7461C32.39 28.7263 31.6184 28.0509 30.7319 28.0509Z" fill="white"/>
<path d="M30.3339 29.6068V28.9888H30.7513C30.9619 28.9888 31.2108 29.0214 31.2108 29.2777C31.2108 29.582 30.981 29.6068 30.7187 29.6068H30.3339ZM31.519 29.3179C31.519 28.9142 31.2701 28.742 30.7876 28.742H30.0275V30.7452H30.3588V29.8881H30.6651L31.184 30.7452H31.5573L30.9944 29.8651C31.2988 29.8288 31.519 29.6814 31.519 29.3179Z" fill="white"/>
<path d="M136.598 19.7785C135.721 19.7785 135.175 19.0935 135.175 18.2555C135.175 17.3582 135.797 16.7325 136.598 16.7325C137.387 16.7325 138.007 17.3582 138.007 18.2555C138.007 19.1548 137.387 19.7785 136.598 19.7785ZM136.598 16.5603C135.7 16.5603 134.932 17.2357 134.932 18.2555C134.932 19.2198 135.623 19.9449 136.598 19.9449C137.482 19.9449 138.252 19.2715 138.252 18.2555C138.252 17.2357 137.482 16.5603 136.598 16.5603Z" fill="white"/>
<path d="M136.198 18.1152V17.4992H136.615C136.826 17.4992 137.075 17.5298 137.075 17.7862C137.075 18.0923 136.843 18.1152 136.585 18.1152H136.198ZM137.383 17.8263C137.383 17.4226 137.134 17.2504 136.652 17.2504H135.892V19.2537H136.219V18.3984H136.529L137.048 19.2537H137.419L136.858 18.3735C137.161 18.3391 137.383 18.1899 137.383 17.8263Z" fill="white"/>
<path d="M19.2873 12.7913L18.644 10.9718L13.1873 3.684L14.1676 3.44101L23.5761 11.5687L29.1132 9.98641C29.7642 9.81804 30.5032 9.78169 31.0661 9.78551C29.3257 6.03545 26.1417 2.95695 21.9372 1.46074C13.6258 -1.49913 4.48724 2.84023 1.53105 11.1497C0.615858 13.7193 0.397591 16.3711 0.782431 18.8928L14.047 14.2875L19.2873 12.7913Z" fill="white"/>
<path d="M31.6486 11.2218C31.1623 11.5375 30.4482 11.9507 29.7397 12.1784L24.1911 13.7607L20.4883 25.6385L19.5271 25.9504L20.3083 16.8794L19.8717 14.9948L14.6716 16.4776L0.928406 19.7111C2.01592 24.9975 5.76093 29.6009 11.2195 31.5448C19.5329 34.5047 28.6675 30.1634 31.6237 21.8597C32.8989 18.2799 32.8166 14.5452 31.6486 11.2218Z" fill="white"/>
<path d="M19.8715 14.9961L20.31 16.8788L19.5269 25.9497L20.488 25.6378L24.1909 13.762L29.7395 12.1797C30.4479 11.952 31.1621 11.5349 31.6484 11.223C31.478 10.7351 31.2827 10.2549 31.0663 9.78615C30.5034 9.78232 29.7644 9.82059 29.1134 9.98513L23.5763 11.5713L14.1659 3.43973L13.1875 3.68463L18.6423 10.9724L19.2875 12.79L14.0453 14.2901L0.782654 18.8915C0.824776 19.1671 0.872642 19.4407 0.928166 19.7123L14.6733 16.4789L19.8715 14.9961Z" fill="#222831"/>
</svg>
